<svg width="143" height="31" viewBox="0 0 143 31" fill="none" xmlns="http://www.w3.org/2000/svg">
<path d="M80.6744 23.9147C81.2567 26.2077 83.3136 27.9028 85.7616 27.9032C88.2101 27.9032 90.2677 26.2079 90.8501 23.9147H93.9735C93.3436 27.93 89.9078 30.9999 85.7616 31C81.6156 30.9996 78.1784 27.9298 77.5485 23.9147H80.6744ZM77.4463 22.6836C77.4459 22.6514 77.4438 22.6189 77.4438 22.5865C77.4438 22.5546 77.4459 22.5224 77.4463 22.4906V22.6836ZM76.5697 7.97201L70.4414 11.0712V22.145H67.3779V5.31804H70.4414V7.97201L76.5697 4.87149V7.97201ZM119.906 7.97201C120.698 6.69622 122.23 6.19974 124.283 6.19974C127.627 6.19977 129.973 9.16445 129.973 12.4575V22.1438H126.872V13.1702C126.872 10.7966 125.401 9.30026 123.407 9.30026C121.383 9.30032 119.906 10.9154 119.906 13.1702V22.1438H116.841V6.19974H119.906V7.97201ZM24.4771 7.97201C25.3526 6.64356 27.0149 6.19977 28.8549 6.19974C30.6948 6.19974 32.3571 7.08626 33.2326 8.41476C34.1081 7.08626 35.4215 6.19974 38.048 6.19974C41.7685 6.19992 44.6138 8.6357 44.614 11.9568V22.1425H41.5492V12.8422C41.549 10.5308 40.036 9.07845 38.048 9.07825C36.0003 9.07825 34.5456 10.6507 34.5455 12.8422V22.1425H31.482V12.8422C31.4818 10.5307 29.7781 9.07825 27.7601 9.07825C25.7127 9.07849 24.4771 10.5272 24.4771 12.7186V22.1425H21.4136V6.19974H24.4771V7.97201ZM64.7433 12.9104C64.8845 16.3201 63.0591 19.6527 59.8331 21.2444C56.6073 22.8358 52.8886 22.2388 50.3195 20.0272L53.5003 18.4579C55.0199 19.2072 56.853 19.2668 58.4902 18.4592C60.1274 17.6514 61.2104 16.1535 61.5625 14.4807L64.7433 12.9104ZM94.0782 13.6798C94.0783 13.6962 94.0795 13.7126 94.0795 13.729C94.0795 13.745 94.0783 13.761 94.0782 13.7769V14.1718H94.0669C93.8393 18.6127 90.2081 22.1425 85.7616 22.1425C81.1685 22.1421 77.445 18.3756 77.445 13.729C77.4452 9.08255 81.1686 5.31584 85.7616 5.31551C87.7539 5.31551 89.5822 6.02467 91.0147 7.20634V4.43002H94.0782V13.6798ZM114.209 12.9104C114.35 16.32 112.524 19.6526 109.299 21.2444C106.073 22.836 102.353 22.2389 99.7837 20.0272L102.965 18.4579C104.484 19.2072 106.317 19.2668 107.955 18.4592C109.592 17.6514 110.675 16.1535 111.027 14.4807L114.209 12.9104ZM136.972 4.42748H140.473V7.52799H136.972V19.042H142.667V22.1425L133.912 22.1412H133.909V7.52799H131.72V4.42748H133.909V0H136.972V4.42748ZM18.779 12.9078C18.9202 16.3175 17.0948 19.6501 13.8688 21.2418C10.6431 22.8332 6.92425 22.2362 4.35529 20.0246L7.53603 18.4555C9.0558 19.2048 10.8886 19.2633 12.526 18.4555C14.1634 17.6475 15.2462 16.1498 15.5982 14.477L18.779 12.9078ZM85.7616 8.41349C82.8607 8.41363 80.5088 10.7919 80.5086 13.7265C80.5086 16.6612 82.8606 19.0406 85.7616 19.0407C88.6627 19.0407 91.0147 16.6613 91.0147 13.7265C91.0144 10.7918 88.6626 8.41349 85.7616 8.41349ZM52.1599 5.32686C56.5047 3.18343 61.7451 5.00857 63.8642 9.40368C63.9937 9.6721 64.1079 9.9443 64.2084 10.2185L48.5527 17.9446C48.4009 17.6956 48.2596 17.4361 48.1301 17.1675C46.011 12.7722 47.8151 7.4706 52.1599 5.32686ZM101.624 5.32686C105.969 3.18338 111.209 5.00857 113.328 9.40368C113.458 9.67209 113.572 9.94431 113.673 10.2185L98.0171 17.9446C97.8651 17.6956 97.7238 17.4361 97.5943 17.1675C95.4752 12.7722 97.2793 7.4706 101.624 5.32686ZM6.19566 5.32434C10.5404 3.18083 15.7808 5.00594 17.8999 9.40116C18.0294 9.66962 18.1436 9.94174 18.2441 10.216L2.58849 17.9407C2.43671 17.692 2.29522 17.4334 2.16581 17.1651C0.046694 12.7697 1.85084 7.46808 6.19566 5.32434ZM59.7596 8.96599C58.0876 7.47681 55.6301 7.06372 53.5028 8.11328C51.3757 9.16282 50.1852 11.376 50.3158 13.6255L59.7596 8.96599ZM109.224 8.96599C107.552 7.47681 105.094 7.06372 102.967 8.11328C100.84 9.16285 99.6494 11.3761 99.78 13.6255L109.224 8.96599ZM13.7953 8.96346C12.1235 7.47437 9.66565 7.06016 7.53853 8.1095C5.41133 9.15905 4.22088 11.3734 4.35155 13.6231L13.7953 8.96346Z" fill="#909090"/>
</svg>
