<svg width="100" height="100" viewBox="0 0 100 100" fill="none" xmlns="http://www.w3.org/2000/svg">
<rect width="100" height="100" rx="12" fill="#FF7D31"/>
<path d="M55.2998 45.26C57.9798 46.94 59.9198 48.82 61.1198 50.9C62.3198 52.98 62.9198 55.24 62.9198 57.68C62.9198 59.72 62.4998 61.6 61.6598 63.32C60.8598 65 59.7198 66.46 58.2398 67.7C56.7598 68.9 54.9998 69.86 52.9598 70.58C50.9198 71.26 48.6998 71.6 46.2998 71.6C42.0998 71.6 38.8198 70.6 36.4598 68.6C34.0998 66.56 32.9198 63.72 32.9198 60.08C32.9198 53.6 37.1198 49.16 45.5198 46.76C43.4398 45.36 41.8398 43.78 40.7198 42.02C39.6398 40.22 39.0998 38.34 39.0998 36.38C39.0998 34.7 39.4998 33.12 40.2998 31.64C41.0998 30.16 42.1598 28.88 43.4798 27.8C44.8398 26.68 46.3998 25.8 48.1598 25.16C49.9598 24.52 51.8598 24.2 53.8598 24.2C55.5798 24.2 57.1798 24.44 58.6598 24.92C60.1798 25.4 61.4998 26.08 62.6198 26.96C63.7398 27.84 64.5998 28.88 65.1998 30.08C65.8398 31.24 66.1598 32.5 66.1598 33.86C66.1598 35.18 65.8798 36.48 65.3198 37.76C64.7598 39 63.9798 40.14 62.9798 41.18C62.0198 42.18 60.8798 43.04 59.5598 43.76C58.2398 44.48 56.8198 44.98 55.2998 45.26ZM47.7398 48.02C41.8998 50.66 38.9798 54.82 38.9798 60.5C38.9798 63.1 39.6198 65.08 40.8998 66.44C42.2198 67.76 44.1398 68.42 46.6598 68.42C48.1398 68.42 49.4798 68.2 50.6798 67.76C51.9198 67.32 52.9798 66.7 53.8598 65.9C54.7398 65.1 55.4198 64.16 55.8998 63.08C56.4198 62 56.6798 60.8 56.6798 59.48C56.6798 57.52 56.1798 55.8 55.1798 54.32C54.2198 52.8 52.7798 51.38 50.8598 50.06L47.7398 48.02ZM53.0198 44C55.4198 42.72 57.2598 41.28 58.5398 39.68C59.8198 38.04 60.4598 36.18 60.4598 34.1C60.4598 32.14 59.8398 30.52 58.5998 29.24C57.3998 27.96 55.6598 27.32 53.3798 27.32C52.2598 27.32 51.1998 27.5 50.1998 27.86C49.2398 28.18 48.3998 28.66 47.6798 29.3C46.9598 29.9 46.3798 30.64 45.9398 31.52C45.5398 32.36 45.3398 33.3 45.3398 34.34C45.3398 35.7 45.7598 37.1 46.5998 38.54C47.4798 39.98 48.7998 41.28 50.5598 42.44L53.0198 44Z" fill="black"/>
</svg>
