<svg width="120" height="51" viewBox="0 0 120 51" fill="none" xmlns="http://www.w3.org/2000/svg">
<g opacity="0.6" clip-path="url(#clip0_1_219)">
<mask id="mask0_1_219" style="mask-type:luminance" maskUnits="userSpaceOnUse" x="0" y="0" width="120" height="51">
<path d="M0 0H120V51H0V0Z" fill="white"/>
</mask>
<g mask="url(#mask0_1_219)">
<path d="M35.2773 27.6162C35.2178 27.6164 35.1607 27.6401 35.1185 27.6821C35.0764 27.7242 35.0526 27.7813 35.0524 27.8408V36.2053C35.0524 36.2499 35.075 36.2725 35.075 36.3174C35.0962 36.352 35.1259 36.3805 35.1614 36.4003C35.1968 36.42 35.2367 36.4303 35.2773 36.4302C35.3179 36.4304 35.3579 36.4202 35.3933 36.4004C35.4288 36.3807 35.4585 36.3521 35.4797 36.3174C35.5023 36.2951 35.5023 36.2502 35.5023 36.2053V27.8408C35.5021 27.7812 35.4784 27.7242 35.4362 27.6821C35.394 27.64 35.3369 27.6163 35.2773 27.6162Z" fill="#C7C7C7"/>
<path d="M54.4619 40.9271L30.8015 4.07506C29.7446 2.43364 28.0126 2.43364 26.9554 4.07506L3.29504 40.9271C2.23813 42.5685 2.98022 43.9398 4.93692 43.9398H52.8197C54.7993 43.9175 55.5191 42.5685 54.4619 40.9271ZM20.4783 24.2213C20.3884 24.2213 20.1861 24.2659 19.9386 24.2659C19.691 24.2659 19.3762 24.2213 19.1289 23.9961C18.4094 23.389 18.5892 22.6471 18.5892 22.6471L18.9489 22.6245L19.6913 23.2766C19.7588 23.2543 19.8038 23.2319 19.8487 23.2093C19.9162 23.1647 19.9838 23.1421 20.0287 23.0746C20.0962 23.0297 20.1412 22.9172 20.1861 22.8497C20.2401 22.6903 20.248 22.5189 20.2087 22.3553L19.4214 21.6357C19.4214 21.6357 19.444 21.6134 19.4889 21.5908C19.5481 21.5486 19.6186 21.5252 19.6913 21.5236C19.7588 21.501 19.8936 21.4787 20.096 21.4787H20.1861C20.4337 21.501 20.7708 21.5685 21.1758 21.9284C21.6257 22.333 21.603 22.9178 21.648 23.1653C21.648 23.1876 21.828 23.3673 22.1202 23.66V25.5486C21.1981 24.7606 20.5232 24.2213 20.4783 24.2213ZM23.627 33.7093C23.6942 35.1262 23.7618 38.0491 23.8293 39.4656C23.8519 39.825 23.6044 40.6124 23.042 40.7245C22.9748 40.7471 22.8846 40.7471 22.8174 40.7471C22.7272 40.7471 22.6373 40.7471 22.5249 40.7245C21.9851 40.6124 21.7376 39.8027 21.7825 39.443C21.895 38.0265 22.03 35.1033 22.1425 33.687C22.1425 33.5746 22.1874 33.4398 22.255 33.35C22.255 33.1474 22.1425 32.9677 22.0527 32.8553C21.9851 32.8327 21.9628 32.7881 21.9628 32.7426V32.7203C21.9628 32.6301 22.2101 32.5629 22.5249 32.5406H22.5924V21.9951L22.4124 21.6804L22.5698 20.6009H22.9745L23.1319 21.6804C23.1319 21.6804 22.9971 21.9951 22.9971 22.0177V32.5629C23.042 32.5629 23.2446 32.5629 23.2893 32.5852C23.6041 32.6301 23.829 32.6979 23.829 32.7878V32.8101C23.829 32.855 23.8064 32.8773 23.7389 32.8999C23.649 33.0127 23.5139 33.1926 23.5139 33.3723C23.5821 33.4847 23.627 33.5972 23.627 33.7093ZM28.4851 32.0905L28.395 32.158L28.1474 32.3826L28.1025 32.4276L28.0575 32.4725L28.0126 32.5174L27.9677 32.5846L27.9001 32.6748L27.8329 32.7649L27.7653 32.8773L27.6978 32.9898L27.4955 33.057L27.3607 32.9449L27.2033 32.8098L27.136 32.7423L27.0685 32.675L26.9337 32.5403L26.7986 32.405L26.6638 32.2702L26.5287 32.1354L26.3939 32.0001L26.3713 31.9778L26.3487 31.9555L26.3261 31.9106L26.3035 31.8656L26.2811 31.8207V31.6636L26.3035 31.6413V31.5961H26.3939L26.4165 31.5738L26.4615 31.5515H26.5064L27.0012 31.3941H27.0464L27.069 31.3715L27.114 31.3489L27.1589 31.3266L27.1815 31.3043L27.2264 31.2817L27.2491 31.2591L27.2717 31.2368L27.3166 31.2145L27.3615 31.1919L27.3841 31.1695L27.4065 31.1472H27.4291L27.4517 31.1246H27.4743L27.4969 31.102L27.5195 31.0797L27.5645 31.0348C28.0367 31.4622 28.3741 31.7541 28.5315 31.9114V32.0016L28.4851 32.0905ZM31.9712 32.3606L31.7013 32.3829L30.9366 31.686C30.3519 31.9108 30.3293 32.518 30.3293 32.5855L31.0717 33.3048C31.0717 33.3048 30.8917 33.4175 30.6218 33.4401C30.5349 33.4696 30.4437 33.4846 30.3519 33.4847C30.127 33.4847 29.8345 33.3946 29.5197 33.0802C29.0924 32.6527 29.0698 31.821 29.0249 31.6636C29.0023 31.5735 25.9211 28.8306 23.4473 26.7171V24.9183C25.7637 27.0544 29.5649 30.3822 30.0821 30.5621C30.3969 30.5847 30.9366 30.4949 31.4767 30.9896C32.1959 31.5958 31.9712 32.3606 31.9712 32.3606ZM32.8481 27.9762L32.6681 28.1559L32.2857 28.6283L32.1283 28.7857L31.9483 28.943L31.7683 29.1004L31.5883 29.2577L31.4984 29.3479L31.3859 29.438L31.3184 29.5052L31.1384 29.6852L31.0711 29.7524L30.8911 29.9098L30.8013 29.977L30.6662 30.1121C30.5314 30.0897 30.3963 30.0897 30.2838 30.0897H30.2163C30.0815 29.9996 29.7667 29.7747 29.2942 29.4151L29.3391 29.3925L29.429 29.3253L29.5191 29.2351L29.6316 29.1227L29.7441 29.0103L29.8339 28.9201L29.9464 28.83L30.0589 28.7399L30.1038 28.7175L30.1487 28.6952L30.2835 28.5825L30.4183 28.4701L30.4859 28.4028L30.5983 28.3127L30.7108 28.2229L30.8908 28.0875L31.8805 27.3233L32.0828 27.1657L32.1054 27.1434L32.128 27.1208L32.173 27.0761L32.2854 26.986L32.3979 26.8959L32.5104 26.8057L32.6229 26.7156L32.7353 26.6255L32.9603 26.4458L33.1852 26.2661L33.4102 26.0862L33.4551 26.0413L33.5 26.0189C33.6335 26.3348 33.8613 26.6017 34.1523 26.7831L34.0624 26.8507L33.8601 27.0303L33.6577 27.2103L33.4554 27.3903L33.2754 27.5702L33.0954 27.7499L32.8481 27.9762ZM36.7169 40.2524H36.5142V38.8582L35.2996 37.914L34.1076 38.8582V40.2524H33.9053C33.4105 39.8479 33.0731 39.2184 33.0731 38.5209C33.0723 38.0909 33.1975 37.67 33.4334 37.3104C33.6693 36.9508 34.0053 36.6682 34.4001 36.4975V26.7394C34.3552 26.7168 34.3103 26.6945 34.2877 26.6721C33.9952 26.4696 33.7702 26.2221 33.6354 25.9074C33.5453 25.6828 33.478 25.4353 33.478 25.1652C33.477 24.9257 33.5235 24.6885 33.6147 24.467C33.7059 24.2456 33.8401 24.0445 34.0094 23.8752C34.1788 23.7058 34.3801 23.5718 34.6016 23.4806C34.8231 23.3895 35.0604 23.3431 35.2999 23.3441C35.5023 23.3441 35.7046 23.389 35.8846 23.4342L35.7948 23.5241L35.6823 23.6368L35.5698 23.7492L35.5249 23.7942L35.4799 23.8391L35.3675 23.9289L35.255 24.019L35.03 24.2216H34.9176L34.3555 24.8061V25.5703L34.9176 26.065H35.682L36.1768 25.5703V25.413L36.2893 25.3228L36.5142 25.1432L36.7392 24.9635L36.9641 24.7835L37.0314 24.7163C37.0763 24.8737 37.0989 25.031 37.0989 25.1884C37.0989 25.8404 36.7615 26.4252 36.2444 26.74V36.543C37.0091 36.9026 37.5488 37.6674 37.5488 38.5667C37.5488 39.2184 37.2114 39.8479 36.7169 40.2524ZM40.0679 25.93L40.023 25.9523L39.978 25.9746H39.7084L39.6635 25.8398L39.618 25.7051L39.5507 25.57L39.4832 25.4353L39.4606 25.3681L39.438 25.3005L39.3704 25.1881L39.3032 25.0754L39.2356 24.9632L39.1907 24.8957L39.1458 24.8508L39.0785 24.7383L39.011 24.6482L38.9434 24.5581L38.8536 24.4682L38.7634 24.3781L38.7185 24.3332L38.6736 24.2883L38.5834 24.221L38.5608 24.1535L38.5382 24.1086L38.5156 24.064L38.493 24.0187L38.4706 23.9741L38.448 23.9289L38.4254 23.9066L38.4028 23.8843L38.3802 23.8617L38.3576 23.8394L38.335 23.817H38.1561L38.1112 23.8394H38.0886L38.066 23.8617L37.9987 23.9066L37.9538 23.9289L37.9089 23.9515L37.8413 23.9741L37.7741 23.9964L37.7065 24.0187L37.639 24.0414H37.5262L37.4813 24.064L37.4363 24.0863H37.2337L36.9862 24.2659L36.7386 24.4459L36.5136 24.6259L36.2887 24.8056L36.0638 24.9855L35.2991 25.6376H35.2541L34.692 25.1429V24.8056L35.4115 24.1758L35.524 24.0637L35.6365 23.9509L35.6814 23.9063L35.7263 23.8611L35.8388 23.7487L35.9513 23.6362L36.0638 23.5235L36.1762 23.4113L36.1988 23.3887L36.2215 23.3661L36.2664 23.3215L36.491 23.0966V23.0517L36.5136 23.0071L36.5363 22.9845L36.5589 22.9618L36.5815 22.9395L36.6041 22.9172L36.649 22.872L36.6716 22.8497L36.6943 22.8274L36.7615 22.7825L36.8064 22.7601L36.8514 22.7375L36.874 22.6025V22.2431L36.8514 22.1982L36.8288 22.1533L36.8061 22.1087L36.7835 22.0635L36.7609 22.0188L36.7383 21.9736L36.7157 21.929L36.6931 21.8841L36.6708 21.8392L36.6482 21.8166L36.6255 21.7942L36.558 21.727L36.4905 21.6821L36.4006 21.6372L36.3104 21.6149L36.2655 21.5923L36.2206 21.5697H36.1081L35.6808 20.9628V20.873L35.7034 20.8281L35.7261 20.7831L35.7487 20.7382L35.7713 20.6933L35.7939 20.6484L35.8165 20.6035L35.8388 20.5812L35.8614 20.5588L35.884 20.5362L35.9066 20.5136L35.9293 20.4913L35.9742 20.469L36.0191 20.4464L36.064 20.4241L36.109 20.4018L36.1539 20.3792L36.1988 20.3566L36.2438 20.3342L36.2887 20.3119L36.3336 20.2893L36.4012 20.2667L36.4687 20.2444L36.9859 20.7614L37.0085 20.8066L37.0311 20.8512L37.0537 20.8962L37.0763 20.9411V20.986L37.0989 21.0309L37.1215 21.0755L37.1441 21.1208L37.1668 21.1654L37.1891 21.2106V21.2329L37.2117 21.2552L37.2343 21.2778V21.3225L37.2569 21.3451L37.2795 21.3677H37.3021L37.3247 21.39L37.3474 21.4123L37.37 21.4349L37.3926 21.4575L37.4152 21.4798H37.7312L37.7987 21.5021L37.8662 21.5247L37.9335 21.5694L38.001 21.6146L38.0686 21.6592L38.1358 21.7044L38.2034 21.7716L38.2709 21.8389L38.3382 21.9061L38.4057 21.9733L38.4732 22.0409L38.5405 22.131L38.608 22.2208L38.6756 22.311L38.7431 22.4011L38.7881 22.5138L38.9005 22.7158L39.013 22.9184L39.0579 23.0085L39.1029 23.0983L39.1927 23.3006L39.2829 23.5029L39.373 23.7052L39.4629 23.9075L39.5078 23.9976L39.5528 24.0877L39.618 24.2885L39.6629 24.3787L39.6855 24.4688L39.7305 24.5586L39.7531 24.6488L39.7757 24.7389L39.7983 24.8287L39.8209 24.9189L39.8432 25.009L39.8658 25.0991L39.8885 25.1892L39.9111 25.2794L39.9337 25.3692L39.9786 25.5715L40.0688 25.819L40.0679 25.93Z" fill="#C7C7C7"/>
<path d="M56.5985 39.5554L52.0103 32.3156C52.1228 31.7534 52.2126 31.1912 52.2802 30.6293C52.2126 30.6519 51.3355 30.7867 51.0659 30.8319L50.4586 29.8871H50.5261C50.6085 29.8056 50.7086 29.7441 50.8186 29.7074L52.3706 29.2351C52.3929 28.763 52.4156 28.3132 52.4156 27.8408C52.4156 27.4137 52.3929 27.0091 52.3706 26.582C52.2805 26.6043 51.336 26.9639 51.1786 27.0091C50.9986 27.0766 50.6615 27.0993 50.4815 26.6269C50.3014 26.1548 50.7963 25.9302 50.7963 25.9302L52.2355 25.2106C52.1457 24.3114 51.988 23.4345 51.7856 22.5801C51.763 22.6024 50.8412 23.1194 50.6835 23.2096C50.5261 23.2997 50.1887 23.3895 49.9414 22.9621C49.6939 22.5349 50.1438 22.2199 50.1438 22.2199L51.4482 21.2531C51.2007 20.3991 50.8858 19.5671 50.5484 18.7577C50.5484 18.7577 49.7162 19.4543 49.5588 19.5671C49.4237 19.6795 49.1089 19.8369 48.7715 19.4543C48.4566 19.0724 48.839 18.6899 48.839 18.6899L49.9634 17.5208C49.5588 16.7337 49.1312 15.9466 48.6364 15.205C48.6138 15.2499 47.9392 16.0367 47.8041 16.1718C47.6916 16.3068 47.3994 16.5091 47.0168 16.1941C46.6344 15.8794 46.9496 15.4296 46.9496 15.4296L47.849 14.0806C47.3319 13.3613 46.7472 12.6864 46.1622 12.0343C46.1173 12.1245 45.6002 12.9791 45.51 13.1364C45.4201 13.2938 45.1726 13.541 44.7453 13.2938C44.318 13.0466 44.543 12.5516 44.543 12.5516L45.1952 11.0676C44.5653 10.4604 43.8681 9.8762 43.1709 9.3363C43.1483 9.42614 42.7886 10.3706 42.7211 10.528C42.6535 10.7076 42.4512 10.9774 41.9787 10.8201C41.5065 10.6404 41.6639 10.1234 41.6639 10.1234L42.0462 8.54921C41.3076 8.05654 40.5417 7.60615 39.7521 7.20019C39.7521 7.24511 39.5498 8.27941 39.5272 8.45937C39.4822 8.63934 39.3471 8.95406 38.8523 8.86393C38.3575 8.7738 38.425 8.23449 38.425 8.23449L38.5375 6.61567C37.6829 6.23343 36.8057 5.91841 35.906 5.64861V7.42508L32.9822 2.88306C30.5307 -0.961996 26.9997 -0.961996 24.5481 2.88306L22.7938 5.6263L22.6364 5.60369C21.7818 5.85118 20.9495 6.16561 20.1399 6.50323C20.1399 6.50323 20.8371 7.33524 20.9722 7.4926C21.0846 7.62736 21.242 7.94237 20.8597 8.27941C20.4773 8.59442 20.095 8.21217 20.095 8.21217L18.9253 7.08804C18.1383 7.4926 17.351 7.92006 16.6089 8.41474C16.6538 8.43706 17.4411 9.11142 17.5759 9.24647C17.7107 9.35891 17.9133 9.65102 17.5985 10.0336C17.2837 10.4155 16.8338 10.1008 16.8338 10.1008L15.4844 9.20126C14.7649 9.71855 14.0901 10.3031 13.4379 10.8873C13.5277 10.9325 14.3823 11.4495 14.54 11.5394C14.6974 11.6295 14.9447 11.8767 14.6974 12.3041C14.4501 12.7316 13.955 12.5064 13.955 12.5064L12.4705 11.8544C11.8632 12.4841 11.2785 13.1808 10.7388 13.878C10.8063 13.9001 11.7734 14.26 11.9308 14.3275C12.1108 14.3947 12.3807 14.5976 12.223 15.0697C12.043 15.5418 11.5258 15.3844 11.5258 15.3844L9.95146 15.0025C9.45866 15.7408 9.00813 16.5065 8.60207 17.2959C8.62468 17.2959 9.68158 17.4979 9.8616 17.5205C10.0416 17.5654 10.3564 17.7005 10.2663 18.1952C10.1764 18.6896 9.63665 18.6223 9.63665 18.6223L8.01738 18.5099C7.63502 19.3639 7.32021 20.2412 7.05033 21.1404H8.33219C8.5122 21.1404 8.84963 21.2305 8.84963 21.7249C8.84963 22.2196 8.30987 22.2648 8.30987 22.2648L6.69059 22.4445C6.48767 23.305 6.33005 24.1756 6.21838 25.0527C6.28592 25.0304 7.29789 24.873 7.47791 24.8278C7.65793 24.8055 7.95013 24.8278 8.0626 25.21L10.0642 25.4349L9.72681 25.9742L7.92752 25.7723C7.79272 25.907 7.63502 25.9519 7.63502 25.9519L6.08329 26.4243C6.06068 26.8964 6.03836 27.3462 6.03836 27.8182C6.03836 28.2454 6.06097 28.6503 6.08329 29.0774C6.17316 29.0551 7.11788 28.6955 7.27528 28.6503C7.43269 28.605 7.70257 28.5601 7.88258 28.8751L7.20774 29.9317L6.17315 30.4485C6.21809 30.7635 6.2407 31.0559 6.28563 31.3706L1.1127 39.5325C-1.33882 43.3776 0.393215 46.5251 4.95884 46.5251H16.4741L16.339 47.1099C17.0777 47.6024 17.8436 48.0528 18.6331 48.4589C18.6331 48.4366 18.8354 47.3794 18.8581 47.1997C18.8807 47.0197 19.0381 46.705 19.5329 46.7952C20.0277 46.8853 19.9602 47.4246 19.9602 47.4246L19.8477 49.0434C20.7023 49.4257 21.5795 49.7407 22.4793 50.0102V48.7287C22.4793 48.5487 22.5694 48.2117 23.0639 48.2117C23.5588 48.2117 23.6037 48.7513 23.6037 48.7513L23.7837 50.3701C24.6445 50.5728 25.5154 50.7304 26.3926 50.8422C26.37 50.775 26.2126 49.763 26.1677 49.583C26.1451 49.4033 26.1677 49.1107 26.5501 48.9985L26.8199 46.5251H27.3823L27.0898 49.1107C27.2246 49.246 27.2698 49.4034 27.2698 49.4034L27.742 50.9549C28.2143 50.9772 28.6641 50.9996 29.1367 50.9996C29.5639 50.9996 29.9689 50.9772 30.3962 50.9549C30.3736 50.8648 30.0138 49.9206 29.9689 49.763C29.9014 49.5833 29.8787 49.2463 30.3513 49.0663C30.8238 48.8863 31.0484 49.381 31.0484 49.381L31.7679 50.8202C32.6677 50.73 33.5223 50.5727 34.3994 50.3704C34.3994 50.3478 33.8597 49.426 33.7698 49.2686C33.68 49.1109 33.5898 48.7739 34.0174 48.5264C34.445 48.2789 34.7598 48.7287 34.7598 48.7287L35.7268 50.0328C36.5814 49.7853 37.4136 49.4709 38.2233 49.1333C38.2233 49.1333 37.5261 48.3012 37.4136 48.1439C37.3012 48.0091 37.1437 47.6944 37.5261 47.3571C37.9085 47.0424 38.2908 47.4243 38.2908 47.4243L39.4605 48.5484C40.2475 48.1439 41.0348 47.7167 41.7769 47.222C41.4872 46.9716 41.1947 46.7243 40.8997 46.4801H52.6625C57.2954 46.5482 59.0274 43.4005 56.5985 39.5554ZM52.8199 43.9174H4.9371C2.9804 43.9174 2.23802 42.5687 3.29521 40.9273L26.9556 4.075C28.0128 2.43358 29.7445 2.43358 30.8017 4.075L54.4621 40.927C55.519 42.5684 54.7992 43.9174 52.8199 43.9174Z" fill="black"/>
<path d="M27.6529 31.0115L27.608 31.0564L27.5857 31.0788L27.563 31.1011H27.5404L27.5178 31.1237H27.4952L27.4726 31.1463L27.45 31.1686L27.4051 31.1909L27.3601 31.2135L27.3375 31.2361L27.3149 31.2584L27.27 31.2807L27.2474 31.3034L27.1349 31.3706L27.09 31.3932L27.0674 31.4155H27.0221L26.5273 31.5729H26.4824L26.4598 31.5952L26.4371 31.6178H26.3467V31.6627L26.3241 31.685V31.8647L26.3467 31.9096L26.3693 31.9545L26.3919 31.9992L26.4145 32.0218L26.4371 32.0444L26.5719 32.1791L26.707 32.3142L26.8418 32.4492L26.9766 32.584L27.1117 32.719L27.1792 32.7865L27.2465 32.8538L27.4039 32.9885L27.5613 33.1236L27.7636 33.0563L27.8312 32.9439L27.8984 32.8312L27.966 32.741L28.0335 32.6509L28.0784 32.5837L28.1234 32.5391L28.1683 32.4938L28.2133 32.4492L28.4608 32.2243L28.5507 32.1571L28.6857 32.0447V31.9545C28.4402 31.7308 28.1028 31.4161 27.6529 31.0115ZM33.3882 27.4363L33.5905 27.2566L33.7929 27.0769L33.9952 26.897L34.0854 26.8297C33.7929 26.6272 33.5679 26.3797 33.4331 26.0649L33.3882 26.0875L33.3433 26.1322L33.1183 26.3121L32.8934 26.4921L32.6684 26.6721L32.556 26.7619L32.4435 26.852L32.331 26.9422L32.2185 27.032L32.1061 27.1221L32.0611 27.1671L32.0385 27.1894L32.0159 27.212L31.8136 27.3693L30.8239 28.1341L30.6439 28.2689L30.5314 28.359L30.4189 28.4491L30.3514 28.5164L30.2163 28.6291L30.0815 28.7412L30.0366 28.7638L29.9917 28.7864L29.8792 28.8766L29.7667 28.9664L29.6766 29.0565L29.5641 29.169L29.4516 29.2817L29.3615 29.3716L29.2716 29.4391L29.2267 29.4614C29.6989 29.8436 29.9914 30.0685 30.1488 30.1357H30.216C30.3285 30.1357 30.441 30.1357 30.5984 30.1584L30.7332 30.0233L30.8233 29.9561L31.0034 29.7984L31.0709 29.7312L31.2509 29.5515L31.3182 29.484L31.4306 29.3939L31.5208 29.304L31.7008 29.1464L31.8808 28.989L32.0608 28.8317L32.2182 28.6743L32.6006 28.2022L32.7806 28.0222L32.9606 27.8423L33.1406 27.6626L33.3882 27.4363Z" fill="black"/>
<path d="M36.2444 36.4976V26.6946C36.7615 26.3795 37.0989 25.795 37.0989 25.143C37.0989 24.9856 37.0763 24.828 37.0314 24.6706L36.9641 24.7381L36.7392 24.9178L36.5145 25.0978L36.2896 25.2777L36.1771 25.3679V25.5252L35.6823 26.0199H34.9176L34.3555 25.5252V24.7607L34.9176 24.1759H35.0301L35.255 23.9739L35.3675 23.8838L35.48 23.7937L35.5249 23.7488L35.5698 23.7038L35.6823 23.5914L35.7948 23.4789L35.8846 23.3888C35.7046 23.3216 35.5023 23.2987 35.2999 23.2987C35.0604 23.2977 34.8231 23.3442 34.6016 23.4354C34.3801 23.5266 34.1789 23.6607 34.0095 23.83C33.8401 23.9994 33.706 24.2005 33.6148 24.4219C33.5235 24.6433 33.4771 24.8806 33.478 25.1201C33.478 25.3899 33.523 25.6371 33.6354 25.8623C33.7686 26.1782 33.9965 26.4452 34.2877 26.6265C34.3326 26.6491 34.3549 26.6717 34.4001 26.694V36.4524C33.6354 36.7894 33.0731 37.5765 33.0731 38.4758C33.0731 39.1724 33.3879 39.8022 33.9053 40.2073H34.1077V38.8131L35.2996 37.8683L36.5142 38.8131V40.2073H36.7169C37.234 39.8025 37.5491 39.1727 37.5491 38.4758C37.5488 37.6217 37.0091 36.8575 36.2444 36.4976ZM35.5023 36.2055C35.5023 36.2501 35.4797 36.2727 35.4797 36.3176C35.4585 36.3522 35.4287 36.3807 35.3933 36.4005C35.3578 36.4202 35.3179 36.4305 35.2773 36.4304C35.2367 36.4306 35.1968 36.4203 35.1613 36.4006C35.1259 36.3808 35.0961 36.3522 35.075 36.3176C35.0524 36.2953 35.0524 36.2504 35.0524 36.2055V27.841C35.0524 27.7062 35.1648 27.6164 35.2773 27.6164C35.4124 27.6164 35.5023 27.7291 35.5023 27.841V36.2055ZM22.1202 23.6818C21.8277 23.412 21.648 23.232 21.648 23.1871C21.5804 22.9396 21.6254 22.3554 21.1758 21.9503C20.7711 21.5906 20.4111 21.5005 20.1861 21.5005H20.096C19.9159 21.5005 19.7812 21.5231 19.6913 21.5454L19.489 21.6129C19.4644 21.6245 19.4417 21.6395 19.4214 21.6576L20.2087 22.3771C20.2482 22.5407 20.2403 22.7122 20.1861 22.8715C20.1412 22.9391 20.096 23.0515 20.0287 23.0964C19.9615 23.1413 19.9162 23.1865 19.8487 23.2315C19.8038 23.2538 19.7362 23.2761 19.6913 23.2987L18.9489 22.6466L18.5892 22.6692C18.5892 22.6692 18.4091 23.3885 19.1289 24.018C19.3988 24.2429 19.6913 24.2881 19.9386 24.2881C20.1858 24.2881 20.3885 24.2431 20.4783 24.2431H20.5009C20.5459 24.2431 21.1981 24.8051 22.1428 25.5922V23.6809H22.1202V23.6818ZM31.499 30.9891C30.9366 30.4944 30.4195 30.5845 30.1044 30.5616C29.5646 30.3817 25.7863 27.0539 23.4696 24.9178V26.7166C25.9211 28.8527 29.0249 31.5733 29.0472 31.6632C29.0698 31.8205 29.1147 32.6522 29.542 33.0797C29.8568 33.3944 30.1493 33.4843 30.3743 33.4843C30.4641 33.4843 30.5543 33.4619 30.6442 33.4396C30.914 33.417 31.0941 33.3043 31.0941 33.3043L30.3517 32.585C30.3517 32.5178 30.3743 31.8883 30.959 31.6855L31.7237 32.3824L31.9936 32.3601C31.9712 32.3607 32.1959 31.5959 31.499 30.9891Z" fill="black"/>
<path d="M39.978 25.4577L39.9554 25.3681L39.9328 25.278L39.9105 25.1656L39.8879 25.0755L39.843 24.9633L39.8203 24.8735L39.798 24.7833L39.7754 24.6935L39.7305 24.5808L39.7082 24.4912L39.6629 24.4011L39.6406 24.2886L39.5508 24.1087L39.5281 23.9965L39.4832 23.9064L39.3931 23.7041L39.3032 23.5242L39.2133 23.3219L39.1232 23.1419L39.0559 23.0298L39.0107 22.9396L38.8985 22.7374L38.7858 22.5574L38.7408 22.4449L38.6736 22.3551L38.6284 22.2653L38.5611 22.1751L38.4936 22.0853L38.426 22.0178L38.3811 21.9503L38.3135 21.883L38.2463 21.8152L38.1788 21.748L38.1112 21.7031L38.0437 21.6578L37.9761 21.6132L37.9089 21.568L37.8413 21.5454L37.7738 21.5231H37.7062L37.6839 21.5454H37.5488L37.5265 21.5231H37.4813L37.459 21.5005H37.4364L37.4138 21.4782H37.3914L37.3691 21.4559L37.3465 21.4333L37.3239 21.4107L37.3016 21.3883L37.279 21.3657V21.3431H37.2566L37.234 21.2982V21.2759L37.2114 21.2533V21.231L37.1891 21.2084L37.1665 21.1632L37.1442 21.1185V21.0736L37.1216 21.0284V21.0058L37.0992 20.9835V20.9386L37.0766 20.8934L37.054 20.8484V20.7812L36.5369 20.2639L36.4693 20.2865H36.4244L36.3569 20.3091L36.3119 20.3314L36.2444 20.3538L36.1994 20.3764L36.1545 20.399L36.1093 20.4216L36.087 20.4439L36.042 20.4665L35.9971 20.4888L35.9745 20.5111L35.9522 20.5337L35.907 20.5563L35.8846 20.5789L35.862 20.6238L35.8397 20.6462L35.8171 20.6911L35.7948 20.7363L35.7722 20.7812L35.7495 20.8261L35.7272 20.871V20.9612L36.1319 21.568H36.1994L36.2444 21.5906H36.3119L36.3569 21.6132L36.447 21.6355L36.5369 21.6805L36.6044 21.7257L36.6717 21.7929L36.7169 21.8152L36.7392 21.8604L36.7615 21.883L36.7841 21.9279L36.8067 21.9726L36.8291 21.9952L36.8517 22.0404L36.8743 22.0853V22.1302L36.8966 22.1751L36.9192 22.2201V22.76L36.8743 22.7823L36.8291 22.8046L36.7615 22.8495L36.7392 22.8721L36.7169 22.8947L36.6717 22.9619L36.6493 22.9845L36.6267 23.0072L36.6044 23.0298V23.0521L36.5818 23.1193L36.5592 23.1419V23.1645L36.3342 23.3894L36.2896 23.4566L36.267 23.4792L36.2221 23.5016L36.1093 23.614L36.0194 23.7267L35.907 23.8392L35.7948 23.9513L35.7272 23.9965L35.682 24.0414L35.5698 24.1536L35.4571 24.266L34.7376 24.8958V25.2328L35.2999 25.7275H35.3449L36.1093 25.0755L36.3342 24.8735L36.5592 24.6935L36.7841 24.5135L37.0317 24.3113L37.2566 24.1313H37.3914L37.4364 24.1087H37.4813L37.5265 24.0864H37.5941L37.6164 24.0641H37.6613L37.6839 24.0414H37.7062L37.7738 24.0188L37.8413 23.9965L37.9089 23.9513L37.9761 23.9287L38.0213 23.9064L38.0437 23.8841L38.1335 23.8615V23.8392H38.1561L38.2011 23.8166L38.2463 23.794H38.3362L38.3811 23.8166H38.4037L38.426 23.8392L38.4486 23.8615L38.4936 23.8841L38.5159 23.9287L38.5385 23.9513V23.9965L38.5611 24.0414L38.5834 24.0864L38.606 24.1313V24.1988L38.6959 24.266L38.7408 24.3113L38.7858 24.3562L38.8533 24.4234L38.9432 24.5135L39.0107 24.6034L39.1009 24.7161L39.1681 24.8056L39.1907 24.8735L39.2357 24.9181L39.3032 25.0308L39.3705 25.1433L39.438 25.278L39.4606 25.3455L39.4832 25.3905L39.5508 25.5255L39.618 25.6603L39.6629 25.7953L39.7082 25.9527H39.978L40.0227 25.9301H40.0679L40.0902 25.9075L40.0227 25.6603L39.978 25.4577ZM23.852 32.8105C23.852 32.7879 23.852 32.7879 23.852 32.8105C23.852 32.698 23.627 32.6305 23.2896 32.5856C23.2447 32.5856 23.0646 32.5633 22.9974 32.5633V22.0181L23.1322 21.6807L22.9748 20.6012H22.5701L22.4127 21.6807L22.5927 21.9955V32.541H22.5252C22.1878 32.5633 21.9631 32.6308 21.9631 32.7206V32.743C21.9631 32.7882 21.9854 32.8105 22.053 32.8557C22.1431 32.9681 22.2553 33.1478 22.2553 33.3504C22.2104 33.4405 22.1654 33.575 22.1428 33.6874C22.0304 35.1039 21.8953 38.0272 21.7828 39.4208C21.7379 39.7807 21.9628 40.5901 22.5252 40.7026C22.6153 40.7249 22.7052 40.7249 22.8177 40.7249C22.9075 40.7249 22.9751 40.7249 23.0423 40.7026C23.6047 40.5901 23.852 39.803 23.8296 39.4434C23.7621 38.0269 23.6946 35.1037 23.6273 33.6874C23.6273 33.575 23.5824 33.4402 23.5372 33.3504C23.5372 33.1478 23.6722 32.9681 23.7621 32.878C23.807 32.8777 23.852 32.8328 23.852 32.8105Z" fill="black"/>
<path d="M64.8976 19.5893H65.9319V10.5957H66.1575L68.6983 19.2296H70.0709L72.6117 10.5957H72.8146V19.5893H73.8489V9.62889H71.9374L69.3731 18.173L66.8543 9.62889H64.8976V19.5893ZM78.7293 10.5957H79.1569L80.5741 16.0595H77.2904L78.7293 10.5957ZM75.2887 19.5893H76.3906L77.0874 17.0486H80.8214L81.5183 19.5893H82.6207L80.0564 9.62889H77.875L75.2887 19.5893ZM89.0528 19.5893H90.2901L87.4336 14.5532L90.1327 9.62889H88.8954L86.4886 14.1706L85.1395 14.2381V9.62889H84.037V19.5893H85.1395V15.1826L86.4886 15.16L89.0528 19.5893ZM91.5945 19.5893H97.1718V18.6002H92.6964V15.0026H96.3622V14.0359H92.6964V10.5957H97.1718V9.62889H91.5945V19.5893ZM104.032 12.6419C104.032 14.1034 103.447 14.8001 102.165 14.8001H99.9837V10.5731H102.165C103.447 10.5957 104.032 11.2703 104.032 12.6419ZM104.212 19.5893H105.403L103.514 15.5646C104.459 15.2272 105.178 14.4851 105.178 12.664C105.178 10.5728 104.144 9.65121 102.187 9.65121H98.881V19.6116H99.9834V15.7894H102.435L104.212 19.5893ZM107.81 12.8665L107.855 9.58368H106.821L106.865 12.8665H107.81ZM115.075 9.78625C115.075 9.78625 113.545 9.49384 112.421 9.49384C110.441 9.49384 109.362 10.3482 109.362 12.2594C109.362 13.9457 110.352 14.5079 112.196 14.9577C113.545 15.2501 114.22 15.5875 114.22 16.8014C114.22 18.1055 113.635 18.7799 112.353 18.7799C111.409 18.7799 109.564 18.5776 109.564 18.5776L109.497 19.4771C109.497 19.4771 111.229 19.7472 112.353 19.7472C114.4 19.7472 115.344 18.6903 115.344 16.689C115.344 14.9128 114.445 14.4181 112.668 13.9683C111.162 13.5861 110.51 13.3386 110.51 12.1472C110.51 10.9556 111.162 10.4832 112.488 10.4832C113.455 10.4832 115.03 10.6858 115.03 10.6858L115.075 9.78625ZM67.7767 25.4577H68.2037L69.621 30.9216H66.3372L67.7767 25.4577ZM64.3356 34.4516H65.4374L66.1349 31.911H69.8682L70.5651 34.4516H71.6675L69.1032 24.4912H66.9219L64.3356 34.4516ZM78.2125 24.6486C78.2125 24.6486 76.6828 24.3562 75.5583 24.3562C73.5796 24.3562 72.4998 25.2105 72.4998 27.1217C72.4998 28.8081 73.4894 29.3703 75.3334 29.8201C76.6825 30.1125 77.3573 30.4495 77.3573 31.6638C77.3573 32.9679 76.7723 33.6422 75.4908 33.6422C74.5463 33.6422 72.7018 33.4402 72.7018 33.4402L72.6346 34.3395C72.6346 34.3395 74.3666 34.6093 75.4911 34.6093C77.5379 34.6093 78.4821 33.5527 78.4821 31.5516C78.4821 29.7751 77.5823 29.2807 75.8059 28.8307C74.2994 28.4487 73.6471 28.2012 73.6471 27.0096C73.6471 25.8179 74.2994 25.3459 75.6259 25.3459C76.5935 25.3459 78.1675 25.5481 78.1675 25.5481L78.2125 24.6486ZM85.8592 24.4912H84.6672L82.4407 29.0779L80.1912 24.4912H78.9995L81.9229 30.2695V34.4516H82.9801V30.2695L85.8592 24.4912ZM92.1566 34.4516V33.4625H88.2206V24.4912H87.1408V34.4516H92.1566ZM94.2927 24.4912H93.1909V31.4163C93.1909 33.5973 94.2252 34.5864 96.4295 34.5864C98.6563 34.5864 99.6906 33.5973 99.6906 31.4163V24.4912H98.5888V31.4841C98.5888 33.0128 97.9365 33.6199 96.4521 33.6199C94.9902 33.6199 94.3154 33.0128 94.3154 31.4841V24.4912H94.2927ZM101.85 34.4516H102.885V25.4577H103.087L105.628 34.092H107.001L109.542 25.4577H109.744V34.4516H110.801V24.4912H108.867L106.326 33.0351L103.784 24.4912H101.85V34.4516ZM117.751 8.79688H118.179V6.97549L118.696 8.66212H119.033L119.572 6.97549V8.79688H120V6.36865H119.415L118.853 8.0547L118.313 6.36865H117.728V8.79688H117.751ZM115.885 6.79582H116.514V8.79688H116.964V6.79582H117.504V6.39126H115.885V6.79582Z" fill="#080504"/>
</g>
</g>
<defs>
<clipPath id="clip0_1_219">
<rect width="120" height="51" fill="white"/>
</clipPath>
</defs>
</svg>
